<svg xmlns="http://www.w3.org/2000/svg" width="192" height="192" viewBox="0 0 192 192">
  <rect width="192" height="192" rx="32" fill="#FF6B6B"/>

  <!-- Baby Spoon (LEFT, center x=64) -->
  <circle cx="64" cy="50" r="26" fill="white"/>
  <rect x="57" y="70" width="14" height="10" fill="white"/>
  <path d="M 57,78 C 51,105 47,138 51,160 Q 64,173 77,160 C 81,138 77,105 71,78 Z" fill="white"/>

  <!-- Baby Fork (RIGHT, center x=128) -->
  <rect x="108" y="28" width="6" height="60" rx="3" fill="white"/>
  <rect x="120" y="22" width="6" height="66" rx="3" fill="white"/>
  <rect x="132" y="22" width="6" height="66" rx="3" fill="white"/>
  <rect x="144" y="28" width="6" height="60" rx="3" fill="white"/>
  <path d="M 105,86 Q 105,100 114,100 L 142,100 Q 151,100 151,86 Z" fill="white"/>
  <path d="M 121,98 C 115,122 111,152 115,163 Q 128,175 141,163 C 145,152 141,122 135,98 Z" fill="white"/>
</svg>
